# xmcd CD database file
#
# Track frame offsets:
#	150
#	12010
#	26384
#	39135
#	58315
#	71387
#	87494
#	102661
#	116611
#	136190
#	152019
#	168586
#	185079
#	197748
#	212624
#	223118
#	237932
#	255278
#	270175
#	286036
#	298085
#	316611
#	332155
#
# Disc length: 4597 seconds
#
# Revision: 0
# Processed by: cddbd v1.5.2PL0 Copyright (c) Steve Scherf et al.
# Submitted via: Feurio! 1.68 - http://www.feurio.com
#
DISCID=4411f317
DTITLE=Chip Taylor - Angels and Gamblers: Best of 1971-1979
DYEAR=1900
DGENRE=country
TTITLE0=Gorgoni, Martin and Taylor - Sweet Dream Woman
TTITLE1=Gorgoni, Martin and Taylor - I Can Make You Cry
TTITLE2=Gorgoni, Martin and Taylor - I Can't Let Go
TTITLE3=Angel Of The Morning
TTITLE4=Home Again
TTITLE5=You Didn't Get Here Last Night
TTITLE6=(I Want) The Real Thing
TTITLE7=I Wasn't Born In Tennessee
TTITLE8=Son Of A Rotten Gambler
TTITLE9=(The Likes Of) Louise
TTITLE10=I Read It In Rolling Stone
TTITLE11=101 In Cashbox
TTITLE12=Funny Songs
TTITLE13=Early Sunday Morning
TTITLE14=Here Again
TTITLE15=Same Ol' Story
TTITLE16=Sleepy Eyes
TTITLE17=Big River
TTITLE18=Chip Taylor with Ghost Train - The Gambler
TTITLE19=Chip Taylor with Ghost Train - Somebody Shoot Out The Jukebox
TTITLE20=Chip Taylor with Ghost Train - Hello Atlanta
TTITLE21=Something Young
TTITLE22=Some Tell The Truth
EXTD=Raven CD 266 (2008)
EXTT0=
EXTT1=
EXTT2=
EXTT3=
EXTT4=
EXTT5=
EXTT6=
EXTT7=
EXTT8=
EXTT9=
EXTT10=
EXTT11=
EXTT12=
EXTT13=
EXTT14=
EXTT15=
EXTT16=
EXTT17=
EXTT18=
EXTT19=
EXTT20=
EXTT21=
EXTT22=
PLAYORDER=
